<?xml version="1.0" encoding="utf-8"?>
<!-- Generator: Adobe Illustrator 22.1.0, SVG Export Plug-In . SVG Version: 6.00 Build 0)  -->
<svg version="1.1" xmlns="http://www.w3.org/2000/svg" xmlns:xlink="http://www.w3.org/1999/xlink" x="0px" y="0px"
	 viewBox="0 0 576 576" style="enable-background:new 0 0 576 576;" xml:space="preserve">
<style type="text/css">
	.st0{fill:none;stroke:#000000;stroke-width:2.8346;stroke-miterlimit:10;}
	.st1{fill:none;}
	.st2{font-family:'MyriadPro-Regular';}
	.st3{font-size:12px;}
</style>
<g id="cut">
</g>
<g id="final">
	<path class="st0" d="M476.1,213.7l-15.4,9.3c-9.6,13.1-7.1,10.6-16.1,26.7c-8.2,14.7-14.5,31.6-18.8,50.3c-0.7,3-1.4,5.9-2.1,8.9
		c-6.8,28.9-10.3,91.2-13.7,121.8c-3.4,30.1-6.8,64.5-7,100.1l-0.3,18l-336.5-6.3l0.3-18c0.2-3,0.4-6.1,0.6-9.1
		c0.4-6.7,0.9-13.6,1.4-20.3c3.3-39,6-85.1,1.3-130.9c-2.3-22.5-5.5-45-8.7-66.8c-1.8-12.6-3.7-25.6-5.3-38.3
		c-2.9-22.8-5.7-46.1-8.4-68.6c-1.8-14.8-3.6-30.1-5.5-45.1c-0.8-6.5-1.6-12.9-2.4-19.3c-1.6-13.3,1,7.6-3.3-18.6L31,90.1L311.4,4.2
		l5.3,17.2c7.2,21.8,12.5,30.7,18.8,39.2c11,14.7,39.3,36.2,53.5,44.4l15.4-9.3L476.1,213.7z"/>
</g>
<g id="text__x5B_HIDE_x5D_">
	<path id="SVGID_x5F_1_x5F_" class="st1" d="M402.6,552.4l-336.4-6.3"/>
	<text>	<textPath  xlink:href="#SVGID_x5F_1_x5F_" startOffset="52.0508%">
<tspan  class="st2 st3">HEM</tspan>	</textPath>
</text>
	<path id="SVGID_x5F_2_x5F_" class="st1" d="M409.3,72.3l92.5,150.1"/>
	<text>	<textPath  xlink:href="#SVGID_x5F_2_x5F_" startOffset="42.5623%">
<tspan  class="st2 st3">HEM</tspan>	</textPath>
</text>
	<path id="SVGID_x5F_3_x5F_" class="st1" d="M30.7,64.4l284.7-51.5"/>
	<text>	<textPath  xlink:href="#SVGID_x5F_3_x5F_" startOffset="38.8676%">
<tspan  class="st2 st3">HEM</tspan>	</textPath>
</text>
	<path id="SVGID_x5F_4_x5F_" class="st1" d="M338.5,24.4l45.7,52"/>
	<text>	<textPath  xlink:href="#SVGID_x5F_4_x5F_" startOffset="37.5232%">
<tspan  class="st2 st3">SEAM</tspan>	</textPath>
</text>
	<path id="SVGID_x5F_5_x5F_" class="st1" d="M489.9,247.2l-68.7,279.7"/>
	<text>	<textPath  xlink:href="#SVGID_x5F_5_x5F_" startOffset="44.5541%">
<tspan  class="st2 st3">SEAM</tspan>	</textPath>
</text>
	<path id="SVGID_x5F_6_x5F_" class="st1" d="M45,523L13.1,88.4"/>
	<text>	<textPath  xlink:href="#SVGID_x5F_6_x5F_" startOffset="44.8853%">
<tspan  class="st2 st3">SEAM</tspan>	</textPath>
</text>
	<rect x="459" y="18" class="st1" width="104" height="77"/>
	<text transform="matrix(1 0 0 1 458.9829 26.52)"><tspan x="0" y="0" class="st2 st3">CUT x2 PER GLOVE</tspan><tspan x="0" y="28.8" class="st2 st3">Hide text layer </tspan><tspan x="0" y="43.2" class="st2 st3">before sending to </tspan><tspan x="0" y="57.6" class="st2 st3">laser</tspan></text>
</g>
</svg>
