<?xml version="1.0" encoding="utf-8"?>
<!-- Generator: Adobe Illustrator 22.1.0, SVG Export Plug-In . SVG Version: 6.00 Build 0)  -->
<svg version="1.1" id="Layer_1" xmlns="http://www.w3.org/2000/svg" xmlns:xlink="http://www.w3.org/1999/xlink" x="0px" y="0px"
	 viewBox="0 0 1031.9 989.4" style="enable-background:new 0 0 1031.9 989.4;" xml:space="preserve">
<style type="text/css">
	.st0{fill:none;}
	.st1{fill:none;stroke:#010101;stroke-miterlimit:10;}
	.st2{fill:none;stroke:#FAED34;stroke-miterlimit:10;}
</style>
<path class="st0" d="M22.2,419.6"/>
<path id="MOLD_WALL_11_" class="st1" d="M22.2,419.6"/>
<path id="SEAM_STEP_5_" class="st1" d="M22.2,419.6"/>
<polygon class="st1" points="445.3,18.3 439.1,17.1 271.2,17.2 267.8,17.6 260.7,19.4 257.2,20.9 251.8,24.2 244.8,19.6 241.3,18 
	235,17.1 62.1,17.1 59,17.4 54,18.8 46.9,23.7 43.1,28.4 41.1,34.4 41.1,138 28.8,138 24.9,138.8 19.7,141.3 15.4,145.8 12.3,151.9 
	10.9,163.9 10.9,287.8 12,293.5 15.8,300.7 21.1,305.3 26.4,307.6 37.1,308.8 41.1,308.8 41.2,409.5 41.8,413.3 44.2,418.5 
	48.5,423 57.7,429 64.8,430.9 238.9,431 241.9,430.7 249.3,428.9 254.6,425.5 255.3,424.7 257.5,426.8 262.5,429.4 267.4,431 
	445.5,431 451.3,430.1 457,426.9 461.3,422.1 463.4,416.6 464.7,404.3 464.7,304.7 467.3,304.6 474.3,303.9 481.5,302 487.6,298.2 
	491.6,292.8 493.2,287 493,158.3 492.2,150.9 491,147 487.9,142.2 483.8,138.1 478.9,135.1 472.7,133.9 464.7,133.9 464.7,84.1 
	502.2,84.1 506.2,86.5 512.3,87.4 537.3,87.4 543.5,85.3 548.4,81.8 552.1,76.5 553.6,70.9 553.6,34.8 552.3,29.3 548.6,23.7 
	543,19.8 537.5,17.9 510.7,17.9 506.8,18.7 501.8,21.1 453.8,21.2 450.2,19.6 "/>
<path id="SEAM_5_" class="st1" d="M22.2,419.6"/>
<path class="st1" d="M32.8,159.3h29.5V38.4h172.4l4.6,3V97h27.3V39.8l5.8-1.4h165.4l5.8,1.4v2.7h69l0,20.3h-69v92.4h27.8l0.7,6.3
	v121.4l-6.3,0.7h-22.2v120l-0.7,6.3H270.4l-3.8-3.8v-52.7h-27.3v56.4H66.9l-4.6-3V287.6H38.4l-6.3-0.7V165.5L32.8,159.3z"/>
<rect x="239.3" y="253.7" class="st1" width="27.3" height="40.3"/>
<rect x="239.3" y="155.2" class="st1" width="27.3" height="40.3"/>
<path class="st0" d="M-7.7-16"/>
<path id="MOLD_WALL_5_" class="st1" d="M-7.7-16"/>
<path id="SEAM_STEP_4_" class="st1" d="M-7.7-16"/>
<path id="SEAM_4_" class="st1" d="M-7.7-16"/>
<path class="st0" d="M22.2-9.1"/>
<path id="MOLD_WALL_3_" class="st1" d="M22.2-9.1"/>
<path id="SEAM_STEP_1_" class="st1" d="M22.2-9.1"/>
<path id="SEAM_1_" class="st1" d="M22.2-9.1"/>
<g>
	<path class="st0" d="M1009.7,28.4"/>
	<path id="MOLD_WALL_4_" class="st1" d="M1009.7,28.4"/>
	<path id="SEAM_STEP_6_" class="st1" d="M1009.7,28.4"/>
	<polygon class="st1" points="586.6,429.7 592.8,430.9 760.7,430.9 764.1,430.5 771.2,428.7 774.7,427.2 780.1,423.9 787,428.5 
		790.6,430.1 796.9,431 969.8,431 972.9,430.7 977.9,429.3 985,424.4 988.7,419.7 990.8,413.7 990.8,310.1 1003.1,310.1 1007,309.3 
		1012.2,306.8 1016.5,302.3 1019.6,296.2 1021,284.2 1021,160.3 1019.9,154.5 1016.1,147.4 1010.7,142.8 1005.5,140.5 994.8,139.2 
		990.8,139.2 990.7,38.5 990.1,34.8 987.7,29.6 983.3,25.1 974.2,19.1 967.1,17.1 793,17.1 790,17.4 782.5,19.2 777.2,22.6 
		776.6,23.4 774.3,21.3 769.4,18.7 764.5,17.1 586.4,17.1 580.6,18 574.8,21.1 570.6,26 568.5,31.4 567.2,43.7 567.2,143.4 
		564.6,143.4 557.5,144.1 550.4,146.1 544.3,149.8 540.3,155.3 538.7,161 538.9,289.8 539.7,297.2 540.9,301 544,305.9 548,310 
		553,313 559.1,314.2 567.1,314.2 567.1,364 529.7,363.9 525.7,361.6 519.6,360.7 494.6,360.7 488.4,362.8 483.5,366.3 479.8,371.6 
		478.3,377.2 478.3,413.3 479.6,418.8 483.3,424.4 488.8,428.3 494.4,430.2 521.2,430.2 525.1,429.4 530.1,427 578.1,426.9 
		581.6,428.5 	"/>
	<path id="SEAM_6_" class="st1" d="M1009.7,28.4"/>
	<path class="st1" d="M999,288.8h-29.5v120.9H797.2l-4.6-3v-55.6h-27.3v57.2l-5.8,1.4H594.2l-5.8-1.4v-2.7h-69l0-20.3h69v-92.4
		h-27.8l-0.7-6.3V165.3l6.3-0.7h22.2v-120l0.7-6.3h172.4l3.8,3.8v52.7h27.3V38.4H965l4.6,3v119.1h23.9l6.3,0.7v121.4L999,288.8z"/>
	<rect x="765.3" y="154.1" class="st1" width="27.3" height="40.3"/>
	<rect x="765.3" y="252.6" class="st1" width="27.3" height="40.3"/>
	<path class="st0" d="M1039.5,464.1"/>
	<path id="MOLD_WALL_2_" class="st1" d="M1039.5,464.1"/>
	<path id="SEAM_STEP_3_" class="st1" d="M1039.5,464.1"/>
	<path id="SEAM_3_" class="st1" d="M1039.5,464.1"/>
	<path class="st0" d="M1009.7,457.2"/>
	<path id="MOLD_WALL_1_" class="st1" d="M1009.7,457.2"/>
	<path id="SEAM_STEP_2_" class="st1" d="M1009.7,457.2"/>
	<path id="SEAM_2_" class="st1" d="M1009.7,457.2"/>
</g>
<g>
	<polygon class="st1" points="891.6,449.1 885.4,447.8 717.5,446.7 714.1,447 707,448.8 703.5,450.3 698.1,453.6 691.1,448.9 
		687.6,447.3 681.3,446.3 508.4,445.1 505.3,445.4 500.3,446.7 493.2,451.6 489.4,456.3 487.3,462.2 486.6,565.9 474.3,565.8 
		470.4,566.6 465.1,569.1 460.8,573.5 457.7,579.6 456.2,591.5 455.3,715.5 456.4,721.2 460.1,728.4 465.4,733.1 470.7,735.4 
		481.4,736.7 485.4,736.7 484.8,837.4 485.4,841.1 487.7,846.4 492,851 501.1,857 508.2,859 682.3,860.2 685.3,860 692.8,858.2 
		698.1,854.9 698.8,854 701,856.2 706,858.8 710.8,860.4 888.9,861.7 894.7,860.9 900.5,857.7 904.8,852.9 906.9,847.5 908.3,835.2 
		909,735.5 911.6,735.5 918.6,734.8 925.8,733 931.9,729.2 935.9,723.8 937.6,718.1 938.3,589.4 937.5,581.9 936.4,578.1 
		933.3,573.2 929.3,569.1 924.4,566 918.2,564.8 910.2,564.7 910.6,514.9 948,515.2 952,517.6 958.1,518.6 983.1,518.7 989.3,516.7 
		994.2,513.2 997.9,508 999.5,502.4 999.7,466.2 998.5,460.7 994.9,455.2 989.3,451.2 983.8,449.3 957,449.1 953,449.8 948.1,452.2 
		900.1,452 896.5,450.3 	"/>
	
		<rect x="677.3" y="689.6" transform="matrix(6.973561e-03 -1 1 6.973561e-03 -10.6149 1395.6924)" class="st2" width="40.3" height="27.3"/>
	
		<rect x="678" y="591.1" transform="matrix(6.973561e-03 -1 1 6.973561e-03 88.5624 1298.5685)" class="st2" width="40.3" height="27.3"/>
</g>
</svg>
