<?xml version="1.0" encoding="utf-8"?>
<!-- Generator: Adobe Illustrator 24.2.3, SVG Export Plug-In . SVG Version: 6.00 Build 0)  -->
<svg version="1.1" id="Layer_1" xmlns="http://www.w3.org/2000/svg" xmlns:xlink="http://www.w3.org/1999/xlink" x="0px" y="0px"
	 viewBox="0 0 863.71 1429.74" style="enable-background:new 0 0 863.71 1429.74;" xml:space="preserve">
<style type="text/css">
	.st0{fill:none;stroke:#000000;stroke-miterlimit:10;}
</style>
<g>
	<polygon class="st0" points="321.63,814.37 247.93,814.37 247.93,805.37 200.83,805.37 200.83,1412.63 18.14,1412.63 18.14,131.94 
		200.83,131.94 200.83,739.67 247.93,739.67 247.93,730.68 321.63,730.68 	"/>
	<polygon class="st0" points="307.46,800.19 262.1,800.19 262.1,791.19 186.66,791.19 186.66,1398.45 32.31,1398.45 32.31,146.11 
		186.66,146.11 186.66,753.85 262.1,753.85 262.1,744.85 307.46,744.85 	"/>
</g>
<g>
	<polygon class="st0" points="839.12,764.25 765.42,764.25 765.42,755.25 718.32,755.25 718.32,1362.51 535.63,1362.51 
		535.63,81.81 718.32,81.81 718.32,689.55 765.42,689.55 765.42,680.55 839.12,680.55 	"/>
	<polygon class="st0" points="839.13,764.25 765.42,764.25 765.42,755.25 718.33,755.25 718.33,1362.51 535.63,1362.51 
		535.63,81.81 718.33,81.81 718.33,689.55 765.42,689.55 765.42,680.55 839.13,680.55 	"/>
	<polygon class="st0" points="822.11,747.24 782.43,747.24 782.43,738.24 701.31,738.24 701.31,1345.5 552.64,1345.5 552.64,98.82 
		701.31,98.82 701.31,706.56 782.43,706.56 782.43,697.56 822.11,697.56 	"/>
</g>
<polygon class="st0" points="338.75,1307.67 521.44,1307.67 521.44,26.97 338.75,26.97 338.75,634.23 291.65,634.23 291.65,625.23 
	217.95,625.23 217.95,708.93 291.65,708.93 291.65,699.93 338.75,699.93 "/>
</svg>
