<?xml version="1.0" encoding="utf-8"?>
<!-- Generator: Adobe Illustrator 25.0.0, SVG Export Plug-In . SVG Version: 6.00 Build 0)  -->
<svg version="1.1" id="Layer_1" xmlns="http://www.w3.org/2000/svg" xmlns:xlink="http://www.w3.org/1999/xlink" x="0px" y="0px"
	 viewBox="0 0 218.1 359.1" style="enable-background:new 0 0 218.1 359.1;" xml:space="preserve">
<style type="text/css">
	.st0{fill:#1F1956;stroke:#000000;stroke-miterlimit:10;}
	.st1{fill:#FFFFFF;stroke:#010101;stroke-miterlimit:10;}
	.st2{font-family:'ArialMT';}
	.st3{font-size:12px;}
	.st4{font-size:9px;}
	.st5{fill:#6142E2;stroke:#010101;stroke-miterlimit:10;}
	.st6{fill:#8DCC93;stroke:#010101;stroke-miterlimit:10;}
	.st7{fill:#72D0F4;stroke:#010101;stroke-miterlimit:10;}
</style>
<path class="st0" d="M202,188.3c0,11.2-4.5,22-12.2,29.9c7.7,7.9,12.2,18.7,12.2,29.9c0,11.2-4.5,21.9-12.1,29.8
	c7.7,7.9,12.1,18.7,12.1,29.9c0,17.5-10.4,32.9-26.6,39.5c-2.6,1.4-5.6,2.1-8.6,2.1h-14.9c-1.9,0-3.8-0.3-5.6-0.9
	c-17.8-5.7-29.7-22-29.7-40.7c0-11.1,4.5-21.8,12.1-29.8c-7.7-7.9-12.1-18.6-12.1-29.8c0-2.5,0.2-4.9,0.6-7.3H58.5
	c-1.5,2.5-3.6,4.7-6,6.2c-2.9,1.8-6.2,2.8-9.8,2.8h-17c-10.2,0-18.4-8.3-18.4-18.4v-27c0-10.2,8.3-18.4,18.4-18.4h17
	c3.8,0,7.3,1.1,10.2,3c2.3,1.5,4.2,3.5,5.7,6h58.6c-0.3-2.2-0.5-4.4-0.5-6.7c0-11.2,4.5-21.9,12.2-29.9
	c-7.7-7.9-12.2-18.7-12.2-29.8c0-19.1,12.9-36,31.3-41.2c1.6-0.5,3.3-0.7,5-0.7h14.2c3.6,0,7,1,10,2.9c15.1,7,24.8,22.2,24.8,38.8
	c0,11.1-4.4,21.8-12.1,29.8C197.5,166.4,202,177.1,202,188.3z"/>
<text transform="matrix(1 0 0 1 31.7363 28.3011)"><tspan x="0" y="0" class="st2 st3">Mold Geometry</tspan><tspan x="0" y="10.8" class="st2 st4">Recommended Settings: </tspan><tspan x="0" y="21.6" class="st2 st4">Level 1 Height - 3 mm (Green)</tspan><tspan x="0" y="32.4" class="st2 st4">Level 2 Height - 6 mm (Blue)</tspan><tspan x="0" y="43.2" class="st2 st4">Base - (Dark Blue)</tspan><tspan x="0" y="54" class="st2 st4">Layer Height: 0.15 mm</tspan></text>
<path class="st5" d="M189.9,158.5c7.7-7.9,12.1-18.6,12.1-29.8c0-16.6-9.7-31.8-24.8-38.8c-3-1.9-6.4-2.9-10-2.9h-14.2
	c-1.7,0-3.4,0.2-5,0.7c-18.4,5.2-31.3,22.1-31.3,41.2c0,11.2,4.5,21.9,12.2,29.8c-7.7,7.9-12.2,18.7-12.2,29.9
	c0,2.2,0.2,4.5,0.5,6.7H58.5c-1.4-2.4-3.4-4.5-5.7-6c-2.9-1.9-6.5-3-10.2-3h-17c-10.2,0-18.4,8.3-18.4,18.4v27
	c0,10.2,8.3,18.4,18.4,18.4h17c3.6,0,7-1,9.8-2.8c2.5-1.5,4.5-3.6,6-6.2h58.6c-0.4,2.4-0.6,4.8-0.6,7.3c0,11.2,4.5,21.9,12.1,29.8
	c-7.7,7.9-12.1,18.6-12.1,29.8c0,18.7,11.9,35,29.7,40.7c1.8,0.6,3.7,0.9,5.6,0.9h14.9c3,0,6-0.7,8.6-2.1
	c16.2-6.6,26.6-22.1,26.6-39.5c0-11.2-4.5-21.9-12.1-29.9c7.7-7.9,12.1-18.7,12.1-29.8c0-11.2-4.5-21.9-12.2-29.9
	c7.7-7.9,12.2-18.7,12.2-29.9C202,177.1,197.5,166.4,189.9,158.5z M196.3,248.1c0,11.8-5.7,22.9-15.1,29.8
	c9.4,6.9,15.1,18.1,15.1,29.9c0,15.2-9.2,28.7-23.4,34.4c-1.9,1-4,1.6-6.2,1.6h-14.9c-1.3,0-2.6-0.2-3.9-0.6
	c-15.4-4.9-25.8-19.1-25.8-35.3c0-11.8,5.7-22.8,15.1-29.8c-9.4-6.9-15.1-18-15.1-29.8c0-4.4,0.8-8.8,2.3-12.9H54.9
	c-0.5,1.6-1.3,3-2.3,4.3c-2.3,2.9-5.9,4.7-9.9,4.7h-17c-7,0-12.8-5.7-12.8-12.8v-27c0-7,5.7-12.8,12.8-12.8h17c4.2,0,7.8,2,10.2,5
	c0.9,1.2,1.6,2.5,2,4h69.6c-1.4-4-2.1-8.2-2.1-12.3c0-11.8,5.7-22.9,15.1-29.9c-9.4-6.9-15.1-18-15.1-29.8
	c0-16.5,11.2-31.2,27.2-35.7c1.1-0.3,2.3-0.5,3.5-0.5h14.2c2.6,0,5.1,0.8,7.2,2.2c13.3,6,21.9,19.2,21.9,33.8
	c0,11.7-5.7,22.8-15,29.8c9.3,6.9,15,18,15,29.8c0,11.8-5.7,23-15.1,29.9C190.6,225.2,196.3,236.4,196.3,248.1z"/>
<path class="st6" d="M196.3,188.3c0-11.8-5.7-22.9-15-29.8c9.3-6.9,15-18.1,15-29.8c0-14.6-8.6-27.8-21.9-33.8
	c-2.1-1.5-4.6-2.2-7.2-2.2h-14.2c-1.2,0-2.3,0.1-3.5,0.5c-16,4.5-27.2,19.2-27.2,35.7c0,11.8,5.7,22.9,15.1,29.8
	c-9.4,6.9-15.1,18-15.1,29.9c0,4.2,0.7,8.4,2.1,12.3H54.9c-0.4-1.5-1.1-2.8-2-4c-2.3-3.1-6-5-10.2-5h-17c-7,0-12.8,5.7-12.8,12.8v27
	c0,7,5.7,12.8,12.8,12.8h17c4,0,7.6-1.8,9.9-4.7c1-1.3,1.8-2.7,2.3-4.3h69.7c-1.5,4.1-2.3,8.5-2.3,12.9c0,11.8,5.7,22.9,15.1,29.8
	c-9.4,7-15.1,18-15.1,29.8c0,16.2,10.4,30.4,25.8,35.3c1.3,0.4,2.6,0.6,3.9,0.6h14.9c2.2,0,4.3-0.6,6.2-1.6
	c14.2-5.7,23.4-19.2,23.4-34.4c0-11.8-5.7-22.9-15.1-29.9c9.4-6.9,15.1-18,15.1-29.8c0-11.8-5.7-22.9-15.1-29.9
	C190.6,211.3,196.3,200.2,196.3,188.3z M176.9,217.7v1c10.1,6.1,16.6,17.2,16.6,29.4c0,12.3-6.5,23.3-16.7,29.4v0.9
	c10.2,6.1,16.7,17.1,16.7,29.4c0,14.1-8.7,26.7-21.8,31.8c-1.5,0.9-3.1,1.3-5,1.3h-14.9c-1,0-2.1-0.2-3-0.5
	c-14.2-4.6-23.8-17.7-23.8-32.6c0-12.5,6.9-23.8,17.4-29.8c-10.6-5.9-17.4-17.3-17.4-29.8c0-5.6,1.4-11,3.9-15.8H52.6l0.1-9.9h-10v9
	h-17v-27h17v9h10l0.1-9.9h75.9c-2.3-4.6-3.5-9.8-3.5-15.2c0-12.6,6.9-23.9,17.5-29.9c-10.6-6-17.5-17.3-17.5-29.8
	c0-15.3,10.3-28.8,25.1-33c0.9-0.2,1.8-0.4,2.7-0.4h14.2c2.2,0,4.2,0.7,5.8,1.9c12.4,5.4,20.5,17.7,20.5,31.4
	c0,12.1-6.4,23.1-16.5,29.2v1.1c10.1,6.1,16.5,17.1,16.5,29.3C193.5,200.6,187,211.6,176.9,217.7z"/>
<path class="st7" d="M167,211.4V225c9.7,3.3,16.6,12.4,16.6,23.1c0,10.8-7,19.9-16.7,23.1v13.5c9.7,3.2,16.7,12.3,16.7,23.1
	s-7.1,19.9-16.8,23.1v0.2h-14.9c-9.8-3.1-16.9-12.2-16.9-23.2c0-11.1,7.5-20.5,17.8-23.4v-12.8c-10.3-2.8-17.8-12.2-17.8-23.4
	s7.6-20.7,17.9-23.5v-2.2H42.7v9h-17v-27h17v9H153V212c-10.3-2.8-17.9-12.3-17.9-23.5c0-11.3,7.6-20.7,18-23.5v-12.7
	c-10.4-2.8-18-12.2-18-23.5c0-11.2,7.6-20.5,17.9-23.4h14.2v0.3c9.5,3.3,16.4,12.3,16.4,23c0,10.7-6.9,19.7-16.5,23v13.6
	c9.6,3.2,16.5,12.3,16.5,23C183.6,199.1,176.6,208.2,167,211.4z"/>
</svg>
