<?xml version="1.0" encoding="utf-8"?>
<!-- Generator: Adobe Illustrator 25.0.0, SVG Export Plug-In . SVG Version: 6.00 Build 0)  -->
<svg version="1.1" id="Layer_1" xmlns="http://www.w3.org/2000/svg" xmlns:xlink="http://www.w3.org/1999/xlink" x="0px" y="0px"
	 viewBox="0 0 178.9 359.1" style="enable-background:new 0 0 178.9 359.1;" xml:space="preserve">
<style type="text/css">
	.st0{fill:#1F1956;stroke:#000000;stroke-miterlimit:10;}
	.st1{fill:#1F1956;}
	.st2{font-family:'ArialMT';}
	.st3{font-size:12px;}
	.st4{font-size:9px;}
	.st5{fill:#FFFFFF;stroke:#010101;stroke-miterlimit:10;}
	.st6{fill:#6142E2;stroke:#010101;stroke-miterlimit:10;}
	.st7{fill:#8DCC93;stroke:#010101;stroke-miterlimit:10;}
	.st8{fill:#72D0F4;stroke:#010101;stroke-miterlimit:10;}
</style>
<path class="st0" d="M152.9,211.4V225c9.7,3.3,16.6,12.4,16.6,23.1c0,10.8-7,19.9-16.7,23.1v13.5c9.7,3.2,16.7,12.3,16.7,23.1
	c0,10.8-7.1,19.9-16.8,23.1v0.2h-14.9c-9.8-3.1-16.9-12.2-16.9-23.2c0-11.1,7.5-20.5,17.8-23.4v-12.8c-10.3-2.8-17.8-12.2-17.8-23.4
	c0-11.2,7.6-20.7,17.9-23.5v-2.2H28.6v9h-17v-27h17v9h110.3V212c-10.3-2.8-17.9-12.3-17.9-23.5c0-11.3,7.6-20.7,18-23.5v-12.7
	c-10.4-2.8-18-12.2-18-23.5c0-11.2,7.6-20.6,17.9-23.4h14.2v0.3c9.5,3.3,16.4,12.3,16.4,23s-6.9,19.7-16.5,23v13.6
	c9.6,3.2,16.5,12.3,16.5,23C169.5,199.1,162.5,208.2,152.9,211.4z"/>
<text transform="matrix(1 0 0 1 13.8356 28.3011)"><tspan x="0" y="0" class="st1 st2 st3">Separator (PVA or Vinyl)</tspan><tspan x="0" y="10.8" class="st1 st2 st4">Recommended Settings: </tspan><tspan x="0" y="21.6" class="st1 st2 st4">Thickness: 0.4 mm thick</tspan><tspan x="0" y="32.4" class="st1 st2 st4">Layer Height: 0.1 mm</tspan></text>
<path class="st5" d="M152.9,211.4V225c9.7,3.3,16.6,12.4,16.6,23.1c0,10.8-7,19.9-16.7,23.1v13.5c9.7,3.2,16.7,12.3,16.7,23.1
	c0,10.8-7.1,19.9-16.8,23.1v0.2h-14.9c-9.8-3.1-16.9-12.2-16.9-23.2c0-11.1,7.5-20.5,17.8-23.4v-12.8c-10.3-2.8-17.8-12.2-17.8-23.4
	c0-11.2,7.6-20.7,17.9-23.5v-2.2H28.6v9h-17v-27h17v9h110.3V212c-10.3-2.8-17.9-12.3-17.9-23.5c0-11.3,7.6-20.7,18-23.5v-12.7
	c-10.4-2.8-18-12.2-18-23.5c0-11.2,7.6-20.6,17.9-23.4h14.2v0.3c9.5,3.3,16.4,12.3,16.4,23s-6.9,19.7-16.5,23v13.6
	c9.6,3.2,16.5,12.3,16.5,23C169.5,199.1,162.5,208.2,152.9,211.4z"/>
<text transform="matrix(1 0 0 1 13.8356 28.3011)"><tspan x="0" y="0" class="st2 st3">Separator (PVA or Vinyl)</tspan><tspan x="0" y="10.8" class="st2 st4">Recommended Settings: </tspan><tspan x="0" y="21.6" class="st2 st4">Thickness: 0.4 mm thick</tspan><tspan x="0" y="32.4" class="st2 st4">Layer Height: 0.1 mm</tspan></text>
</svg>
